<svg width="112" height="35" viewBox="0 0 112 35" fill="none" xmlns="http://www.w3.org/2000/svg">
<path d="M103.771 0H8.23345C7.91679 0 7.60394 0 7.28812 0.00175C7.02375 0.0035 6.76149 0.00858375 6.49458 0.0128625C5.91474 0.0197766 5.33625 0.0714667 4.76416 0.167484C4.19287 0.265591 3.63948 0.450551 3.1227 0.716109C2.60655 0.983913 2.13494 1.3319 1.72495 1.74744C1.31282 2.16181 0.969277 2.64076 0.70753 3.16589C0.445062 3.68997 0.263065 4.25157 0.167826 4.8313C0.0716821 5.41029 0.0199461 5.99596 0.0130824 6.58304C0.0050689 6.85132 0.00422264 7.12049 0 7.3888V27.6138C0.00422264 27.8855 0.0050689 28.1487 0.0130824 28.4204C0.0199482 29.0075 0.0716843 29.5931 0.167826 30.1721C0.262802 30.7522 0.44481 31.3141 0.70753 31.8384C0.969158 32.3618 1.31275 32.8388 1.72495 33.2509C2.13338 33.6683 2.6053 34.0165 3.1227 34.2822C3.63948 34.5485 4.19281 34.7346 4.76416 34.8342C5.33635 34.9294 5.91477 34.9811 6.49458 34.9889C6.76149 34.9948 7.02375 34.9983 7.28812 34.9983C7.60393 35 7.91681 35 8.23345 35H103.771C104.082 35 104.397 35 104.707 34.9983C104.97 34.9983 105.24 34.9948 105.503 34.9889C106.082 34.9816 106.659 34.9298 107.23 34.8342C107.804 34.7339 108.359 34.5479 108.878 34.2822C109.395 34.0163 109.867 33.6681 110.275 33.2509C110.686 32.8372 111.03 32.3605 111.295 31.8384C111.556 31.3137 111.736 30.7518 111.83 30.1721C111.926 29.5931 111.979 29.0075 111.99 28.4204C111.993 28.1487 111.993 27.8855 111.993 27.6138C112 27.2959 112 26.9797 112 26.6567V8.34411C112 8.02368 112 7.70581 111.993 7.3888C111.993 7.12049 111.993 6.85132 111.99 6.58301C111.979 5.99587 111.926 5.41033 111.83 4.83126C111.736 4.25187 111.556 3.69032 111.295 3.16585C110.762 2.1133 109.917 1.25652 108.878 0.71603C108.359 0.451121 107.804 0.26621 107.23 0.167405C106.659 0.0709649 106.082 0.0192568 105.503 0.01274C105.24 0.00847 104.97 0.0033425 104.707 0.00163625C104.397 0 104.082 0 103.771 0Z" fill="#A6A6A6"/>
<path d="M7.29237 34.2344C7.02927 34.2344 6.77253 34.231 6.51149 34.225C5.97074 34.2179 5.43125 34.1702 4.89744 34.0823C4.3997 33.9954 3.91752 33.8339 3.4668 33.6029C3.02022 33.3738 2.61291 33.0735 2.26046 32.7134C1.90291 32.3575 1.60523 31.9447 1.37922 31.4914C1.15072 31.0352 0.992587 30.5462 0.910325 30.0414C0.82149 29.499 0.773426 28.9505 0.766548 28.4007C0.761074 28.2162 0.753906 27.6018 0.753906 27.6018V7.3888C0.753906 7.3888 0.76154 6.78381 0.766591 6.60607C0.773177 6.05717 0.820961 5.50957 0.909531 4.96801C0.991945 4.46184 1.1502 3.9714 1.37882 3.51368C1.604 3.0607 1.90003 2.64763 2.25542 2.29047C2.61042 1.92992 3.01904 1.62803 3.46638 1.39581C3.91606 1.16558 4.39733 1.00514 4.89407 0.919861C5.42962 0.831107 5.97099 0.783122 6.51362 0.776309L7.2928 0.765625H104.703L105.492 0.776738C106.029 0.783212 106.566 0.830769 107.096 0.919004C107.598 1.00535 108.084 1.16691 108.539 1.39837C109.435 1.86636 110.165 2.60677 110.625 3.51581C110.85 3.97038 111.005 4.45682 111.087 4.95862C111.176 5.50462 111.227 6.05652 111.237 6.60992C111.239 6.85772 111.239 7.1239 111.239 7.3888C111.246 7.71692 111.246 8.02924 111.246 8.34411V26.6567C111.246 26.9746 111.246 27.2848 111.239 27.5975C111.239 27.882 111.239 28.1427 111.236 28.411C111.226 28.9545 111.177 29.4966 111.088 30.0328C111.008 30.5412 110.851 31.0341 110.622 31.494C110.395 31.9424 110.099 32.3516 109.745 32.7065C109.392 33.0686 108.984 33.3707 108.537 33.6012C108.083 33.834 107.598 33.9961 107.096 34.0823C106.563 34.1706 106.023 34.2183 105.482 34.225C105.229 34.231 104.964 34.2344 104.707 34.2344L103.771 34.2361L7.29237 34.2344Z" fill="black"/>
<path d="M32.7508 22.1237H30.5802V25.1768C31.4774 25.1937 32.3743 25.1267 33.2593 24.9768L33.339 25.6348C32.3198 25.7959 31.2892 25.8716 30.2577 25.8612H29.7871V21.458H32.7508L32.7508 22.1237ZM34.5534 23.3499H35.4907V24.0198H34.5534V27.3839H33.7527V20.8428H34.5534V23.3499Z" fill="white"/>
<path d="M41.9283 24.0659V24.7119H39.4617V25.9458H38.6534V24.7119H36.0919V24.0659H41.9283ZM36.7712 22.339C36.7712 21.5811 37.6402 21.0316 39.0139 21.0316C40.3876 21.0316 41.2643 21.5811 41.2643 22.339C41.2643 23.108 40.3877 23.6575 39.0215 23.6575C37.6402 23.6575 36.7712 23.108 36.7712 22.339V22.339ZM37.6098 26.5645H41.2566V27.207H36.8167V25.3459H37.6098V26.5645ZM37.5871 22.3467C37.5871 22.7654 38.1904 23.0354 39.0101 23.0354C39.8564 23.0354 40.4407 22.7654 40.4407 22.3467C40.4407 21.9194 39.8601 21.6469 39.0139 21.6469C38.1904 21.6468 37.5871 21.9194 37.5871 22.3467V22.3467Z" fill="white"/>
<path d="M48.4908 25.9116V26.5576H42.6544V25.9116H45.1704V24.8461H43.402V22.7005H46.9425V21.9041H43.3906V21.2546H47.7508V23.3541H44.1989V24.2001H47.914V24.8461H45.9673V25.9116L48.4908 25.9116Z" fill="white"/>
<path d="M55.0537 26.5149H49.2173V25.8689H55.0537L55.0537 26.5149ZM54.3023 22.051H50.7618V23.8506H54.3516V24.5034H49.9724V21.3965H54.3023L54.3023 22.051Z" fill="white"/>
<path d="M61.4618 23.0619H57.6974V22.4201H61.4618L61.4618 23.0619ZM59.6133 26.1424C59.3496 26.1089 59.1009 25.9991 58.8973 25.826C58.6936 25.6529 58.5436 25.4239 58.4652 25.1665C58.3868 24.9091 58.3834 24.6343 58.4553 24.375C58.5273 24.1157 58.6716 23.883 58.8709 23.7047C59.0702 23.5265 59.316 23.4103 59.5788 23.3701C59.8417 23.3299 60.1104 23.3675 60.3527 23.4782C60.595 23.589 60.8006 23.7683 60.9449 23.9945C61.0891 24.2208 61.1658 24.4844 61.1658 24.7537C61.1612 24.9507 61.1165 25.1446 61.0344 25.3232C60.9524 25.5018 60.8348 25.6613 60.689 25.7917C60.5432 25.9221 60.3724 26.0206 60.1873 26.0809C60.0022 26.1413 59.8068 26.1622 59.6133 26.1424V26.1424ZM60.589 21.9237H58.6309V21.2666H60.589L60.589 21.9237ZM59.6133 25.5032C59.7146 25.5096 59.8161 25.4949 59.9116 25.46C60.007 25.4252 60.0944 25.3708 60.1684 25.3004C60.2424 25.23 60.3013 25.145 60.3416 25.0506C60.3819 24.9562 60.4026 24.8545 60.4026 24.7517C60.4026 24.6489 60.3819 24.5471 60.3416 24.4527C60.3013 24.3584 60.2424 24.2734 60.1684 24.2029C60.0944 24.1325 60.007 24.0782 59.9116 24.0433C59.8161 24.0085 59.7146 23.9938 59.6133 24.0002C59.5136 23.9964 59.4141 24.013 59.3209 24.0491C59.2276 24.0851 59.1425 24.1399 59.0706 24.21C58.9987 24.2802 58.9416 24.3643 58.9025 24.4574C58.8634 24.5505 58.8433 24.6505 58.8433 24.7517C58.8433 24.8528 58.8634 24.9529 58.9025 25.046C58.9416 25.1391 58.9987 25.2232 59.0706 25.2934C59.1425 25.3635 59.2276 25.4183 59.3209 25.4543C59.4141 25.4904 59.5136 25.507 59.6133 25.5032V25.5032ZM62.7706 23.5464H63.6965V24.2112H62.7706V27.384H61.9746V20.847H62.7706L62.7706 23.5464Z" fill="white"/>
<path d="M64.7607 26.1953L64.3096 25.5613C64.9816 25.2692 65.568 24.8065 66.012 24.2178C66.456 23.6291 66.7428 22.9343 66.8445 22.2006H64.6697V21.5315H67.6945C67.6855 22.5092 67.4058 23.4648 66.8871 24.2893C66.3684 25.1139 65.6317 25.7743 64.7607 26.1953ZM69.6333 27.3882H68.833V20.8428H69.6333V27.3882Z" fill="white"/>
<path d="M35.5429 14.4849H32.05L31.2118 16.9945H29.7318L33.0408 7.70789H34.5773L37.8864 16.9945H36.3811L35.5429 14.4849ZM32.4118 13.3262H35.1811L33.815 9.25283H33.7771L32.4118 13.3262Z" fill="white"/>
<path d="M45.045 13.6099C45.045 15.7137 43.9336 17.0655 42.2571 17.0655C41.8323 17.0882 41.4097 16.9891 41.0379 16.7796C40.6661 16.5702 40.36 16.2588 40.1548 15.8812H40.1236V19.2341H38.7516V10.2244H40.0789V11.3506H40.1042C40.3188 10.9748 40.6301 10.6649 41.0047 10.4541C41.3794 10.2433 41.8035 10.1394 42.2318 10.1535C43.9277 10.1535 45.045 11.5113 45.045 13.6099ZM43.6351 13.6099C43.6351 12.2385 42.9368 11.3378 41.8701 11.3378C40.8218 11.3378 40.1169 12.2581 40.1169 13.6099C40.1169 14.9737 40.8219 15.888 41.8701 15.888C42.9368 15.888 43.6351 14.9933 43.6351 13.6099Z" fill="white"/>
<path d="M52.412 13.6099C52.412 15.7137 51.3005 17.0655 49.6241 17.0655C49.1992 17.0882 48.7767 16.9891 48.4048 16.7796C48.033 16.5702 47.727 16.2588 47.5218 15.8812H47.4906V19.2341H46.1185V10.2244H47.4459V11.3506H47.4712C47.6858 10.9748 47.997 10.6649 48.3717 10.4541C48.7463 10.2433 49.1704 10.1394 49.5988 10.1535C51.2946 10.1535 52.412 11.5113 52.412 13.6099ZM51.002 13.6099C51.002 12.2385 50.3038 11.3378 49.237 11.3378C48.1888 11.3378 47.4838 12.2581 47.4838 13.6099C47.4838 14.9737 48.1888 15.888 49.237 15.888C50.3038 15.888 51.002 14.9933 51.002 13.6099Z" fill="white"/>
<path d="M57.2985 14.4071C57.4005 15.3274 58.2826 15.9324 59.4893 15.9324C60.6455 15.9324 61.4778 15.3274 61.4778 14.4977C61.4778 13.7765 60.976 13.3458 59.7879 13.0493L58.6005 12.7596C56.9173 12.3478 56.1364 11.5505 56.1364 10.2568C56.1364 8.65467 57.5144 7.55408 59.4708 7.55408C61.4078 7.55408 62.7352 8.65466 62.7798 10.2568H61.3952C61.3125 9.32972 60.5569 8.77002 59.4514 8.77002C58.3467 8.77002 57.5911 9.33655 57.5911 10.1603C57.5911 10.8165 58.0734 11.2028 59.2549 11.4984L60.2643 11.7496C62.144 12.2 62.9257 12.9656 62.9257 14.3242C62.9257 16.0614 61.5604 17.1492 59.3881 17.1492C57.3558 17.1492 55.9842 16.087 55.8956 14.4071L57.2985 14.4071Z" fill="white"/>
<path d="M65.8865 8.62219V10.2244H67.1565V11.3249H65.8865V15.0574C65.8865 15.6367 66.1403 15.9067 66.6994 15.9067C66.85 15.9044 67.0003 15.8939 67.1497 15.8751V16.9689C66.8987 17.0162 66.6436 17.0377 66.3882 17.033C65.0348 17.033 64.5077 16.5186 64.5077 15.2052V11.325H63.5363V10.2244H64.5077V8.62219H65.8865Z" fill="white"/>
<path d="M67.9078 13.6099C67.9078 11.4796 69.1458 10.1406 71.0769 10.1406C73.0139 10.1406 74.246 11.4796 74.246 13.6099C74.246 15.7461 73.0207 17.0782 71.0769 17.0782C69.1331 17.0782 67.9078 15.7461 67.9078 13.6099ZM72.8487 13.6099C72.8487 12.1487 72.1884 11.2865 71.0769 11.2865C69.9655 11.2865 69.3052 12.1547 69.3052 13.6099C69.3052 15.077 69.9655 15.9324 71.0769 15.9324C72.1884 15.9324 72.8487 15.0771 72.8487 13.6099Z" fill="white"/>
<path d="M75.3777 10.2243H76.6856V11.3762H76.7177C76.806 11.0164 77.014 10.6984 77.3066 10.4757C77.5992 10.253 77.9585 10.1392 78.3241 10.1534C78.4824 10.1524 78.6403 10.1699 78.7947 10.2055V11.5052C78.5951 11.4435 78.3868 11.4153 78.1782 11.4215C77.9791 11.4132 77.7805 11.4488 77.5962 11.5257C77.4119 11.6025 77.2462 11.7189 77.1104 11.8668C76.9747 12.0148 76.8722 12.1907 76.8099 12.3826C76.7477 12.5744 76.7271 12.7777 76.7497 12.9784V16.9945H75.3777V10.2243Z" fill="white"/>
<path d="M85.1176 15.0061C84.967 15.646 84.5922 16.2087 84.0631 16.5898C83.5339 16.9709 82.8863 17.1444 82.2404 17.0783C80.2974 17.0783 79.0907 15.7589 79.0907 13.6415C79.0907 11.5181 80.3033 10.1406 82.1838 10.1406C84.0315 10.1406 85.1935 11.4275 85.1935 13.4808V13.9568H80.4754V14.0405C80.4535 14.2897 80.4843 14.5407 80.5655 14.7768C80.6468 15.013 80.7767 15.229 80.9467 15.4103C81.1167 15.5917 81.3228 15.7343 81.5514 15.8288C81.7799 15.9232 82.0257 15.9672 82.2724 15.958C82.5965 15.9888 82.9217 15.9129 83.1998 15.7414C83.4778 15.5699 83.6938 15.312 83.8156 15.0061H85.1176ZM80.4813 12.9853H83.8224C83.8346 12.7613 83.801 12.5371 83.7237 12.3269C83.6465 12.1167 83.5272 11.9249 83.3734 11.7636C83.2195 11.6022 83.0345 11.4749 82.8298 11.3894C82.6251 11.3039 82.4052 11.2622 82.1838 11.2669C81.9604 11.2655 81.739 11.3089 81.5322 11.3947C81.3255 11.4805 81.1375 11.6069 80.9793 11.7666C80.821 11.9264 80.6955 12.1163 80.61 12.3255C80.5245 12.5346 80.4808 12.7589 80.4813 12.9853V12.9853Z" fill="white"/>
<path d="M90.7458 7.86426H91.8151V16.5519H90.7458V12.1666H89.9624C89.8646 13.7158 89.2439 15.0625 87.9899 15.0625C86.6129 15.0625 86.0023 13.4424 86.0023 11.7129C86.0023 9.98254 86.6128 8.39577 87.9899 8.39577C89.2169 8.39577 89.8376 9.65444 89.9565 11.1541H90.7458L90.7458 7.86426ZM88.9252 11.7129C88.9252 10.4371 88.6224 9.46301 87.99 9.46301C87.3744 9.46301 87.0935 10.4371 87.0935 11.7129C87.0935 12.9938 87.3744 13.9568 87.99 13.9568C88.6224 13.9568 88.9251 12.9938 88.9251 11.7129H88.9252ZM93.6838 7.67798V16.9894H92.6145V7.67798H93.6838Z" fill="white"/>
<path d="M98.5175 9.86207C98.4797 10.6826 98.673 11.497 99.0748 12.2104C99.4767 12.9238 100.07 13.5066 100.787 13.891L100.122 14.7617C99.1405 14.196 98.3739 13.3133 97.9449 12.2546C97.5557 13.407 96.7743 14.3812 95.7405 15.0027L95.0381 14.1593C95.7701 13.7314 96.372 13.1078 96.778 12.3567C97.184 11.6057 97.3785 10.756 97.3403 9.90051V8.46069H98.5175L98.5175 9.86207ZM102.823 16.9894H101.678V11.871H99.8356V10.8917H101.678V7.67798H102.823V16.9894Z" fill="white"/>
<path d="M21.3886 17.7632C21.3979 17.0328 21.5893 16.3167 21.9451 15.6815C22.3009 15.0463 22.8095 14.5126 23.4235 14.1301C23.0335 13.5656 22.5188 13.101 21.9206 12.7733C21.3223 12.4455 20.6568 12.2637 19.9771 12.2421C18.527 12.0879 17.1212 13.1214 16.3823 13.1214C15.6291 13.1214 14.4914 12.2574 13.2663 12.283C12.4738 12.3089 11.7015 12.5424 11.0246 12.9607C10.3477 13.379 9.78931 13.9679 9.40377 14.6699C7.73371 17.5997 8.97943 21.9057 10.5792 24.2739C11.3796 25.4336 12.315 26.729 13.5391 26.6831C14.7368 26.6327 15.1842 25.9092 16.63 25.9092C18.0623 25.9092 18.482 26.6831 19.7309 26.6539C21.0161 26.6327 21.8259 25.489 22.5982 24.3184C23.1733 23.4921 23.6159 22.5788 23.9094 21.6124C23.1627 21.2924 22.5255 20.7568 22.0772 20.0723C21.629 19.3877 21.3895 18.5847 21.3886 17.7632V17.7632Z" fill="white"/>
<path d="M19.0298 10.6845C19.7306 9.83211 20.0758 8.73645 19.9922 7.63025C18.9216 7.74419 17.9326 8.26268 17.2224 9.08241C16.8751 9.48286 16.6092 9.94875 16.4397 10.4534C16.2702 10.9581 16.2006 11.4917 16.2348 12.0236C16.7703 12.0292 17.3001 11.9116 17.7842 11.6796C18.2683 11.4477 18.6942 11.1075 19.0298 10.6845Z" fill="white"/>
</svg>
