<svg width="120" height="120" viewBox="0 0 120 120" fill="none" xmlns="http://www.w3.org/2000/svg">
<path d="M48.75 9.3752C49.7908 8.3344 51.1721 7.70396 52.6403 7.59962C54.1085 7.49528 55.5651 7.92404 56.7426 8.80719C57.754 9.56572 58.5749 10.5493 59.1403 11.6801C59.7057 12.8108 60 14.0577 60 15.3219V28.1252L57.2541 26.4777C55.1524 25.2167 53.3197 23.554 51.8606 21.5847C50.4014 19.6154 49.3444 17.378 48.75 15.0002V9.3752Z" fill="#F0975E"/>
<path d="M48.75 15C47.0344 17.8593 44.6076 20.2257 41.7059 21.8686C38.8042 23.5115 35.5265 24.375 32.192 24.375H26.25V16.875C26.25 13.8913 27.4353 11.0298 29.545 8.92005C31.6548 6.81026 34.5163 5.625 37.5 5.625H42.6824C43.9422 5.625 45.1772 5.97582 46.2488 6.63816C47.3205 7.30049 48.1866 8.24817 48.75 9.375V15Z" fill="#ED8573"/>
<path d="M74.8242 78.5742L54.375 58.125L48.75 63.75L70.1154 85.1154L74.8242 78.5742Z" fill="#ED8573"/>
<path d="M58.125 106.875L77.8174 69.2805C78.0987 68.7434 78.5216 68.2936 79.0403 67.9798C79.559 67.6659 80.1537 67.5 80.76 67.5C81.3315 67.5 81.8934 67.6475 82.3913 67.9281C82.8892 68.2088 83.3062 68.6132 83.6021 69.1022C83.898 69.5912 84.0627 70.1483 84.0803 70.7195C84.0979 71.2908 83.9678 71.8569 83.7026 72.3632L67.7307 102.855C67.0955 104.068 66.1407 105.083 64.9696 105.792C63.7985 106.5 62.4558 106.875 61.087 106.875H58.125Z" fill="#ED8573"/>
<path d="M78.75 99.375L82.5 91.875H91.875V99.375H78.75Z" fill="#F0975E"/>
<path d="M112.5 106.875L97.5 91.875H82.5L97.5 106.875H112.5Z" fill="#ED8573"/>
<path d="M37.5 30C38.5355 30 39.375 29.1605 39.375 28.125C39.375 27.0895 38.5355 26.25 37.5 26.25C36.4645 26.25 35.625 27.0895 35.625 28.125C35.625 29.1605 36.4645 30 37.5 30Z" fill="#111111"/>
<path d="M48.75 30C49.7855 30 50.625 29.1605 50.625 28.125C50.625 27.0895 49.7855 26.25 48.75 26.25C47.7145 26.25 46.875 27.0895 46.875 28.125C46.875 29.1605 47.7145 30 48.75 30Z" fill="#111111"/>
<path d="M46.875 33.75V31.875H43.125V33.75C43.1244 34.2471 42.9267 34.7237 42.5752 35.0752C42.2237 35.4267 41.7471 35.6244 41.25 35.625H39.375V39.375H41.25C42.7413 39.3733 44.1711 38.7801 45.2256 37.7256C46.2801 36.6711 46.8733 35.2413 46.875 33.75Z" fill="#111111"/>
<path d="M115.511 72.9628C115.968 72.2392 116.222 71.4063 116.248 70.5509C116.273 69.6955 116.069 68.849 115.656 68.0995C115.243 67.35 114.636 66.7251 113.899 66.2899C113.162 65.8546 112.322 65.625 111.467 65.625H80.625V65.6297C79.5519 65.6558 78.5135 66.0147 77.6532 66.6566L77.454 65.395C77.2199 63.9215 76.6381 62.525 75.7568 61.3211C74.8755 60.1172 73.7202 59.1406 72.3864 58.472L57.8598 51.2087L56.194 44.5452C56.1096 44.2082 55.9331 43.9013 55.6843 43.6588C55.4355 43.4163 55.1242 43.2477 54.7851 43.1718C56.9482 40.5085 58.1277 37.1812 58.125 33.75V32.6518L61.3202 29.4566L61.3206 29.4561L61.3258 29.4509L61.3255 29.4506C61.4996 29.2766 61.6378 29.0699 61.7321 28.8425C61.8263 28.615 61.8749 28.3712 61.875 28.125V15.3218C61.8713 13.7672 61.5075 12.2345 60.8122 10.8439C60.117 9.45332 59.1091 8.24268 57.8676 7.30686C56.632 6.38867 55.1587 5.84467 53.6228 5.73954C52.087 5.63441 50.5533 5.97258 49.2041 6.71383C48.3938 5.78023 47.3918 5.03223 46.2664 4.52078C45.1409 4.00933 43.9185 3.74645 42.6823 3.75004H37.5C34.0202 3.75396 30.6841 5.13803 28.2235 7.59859C25.763 10.0592 24.3789 13.3953 24.375 16.875V24.375C24.3745 24.7453 24.4842 25.1073 24.6901 25.415L24.6899 25.4151L24.6927 25.4193L24.6974 25.4263L28.125 30.5677V33.75C28.1223 37.1812 29.3017 40.5085 31.4648 43.1718C31.1258 43.2477 30.8145 43.4163 30.5657 43.6588C30.3169 43.9013 30.1404 44.2082 30.0559 44.5452L28.3901 51.2087L13.8636 58.472C12.5298 59.1406 11.3744 60.1172 10.4932 61.3211C9.6119 62.525 9.03009 63.9215 8.79591 65.395L3.77287 97.2075C3.70426 97.6423 3.79075 98.0874 4.0172 98.4648L9.6422 107.84C9.8088 108.117 10.0445 108.347 10.3262 108.507C10.608 108.666 10.9262 108.75 11.25 108.75H16.875V114.375C16.875 114.872 17.0725 115.349 17.4242 115.701C17.7758 116.052 18.2527 116.25 18.75 116.25H114.375C114.872 116.25 115.349 116.052 115.701 115.701C116.052 115.349 116.25 114.872 116.25 114.375V106.875C116.25 106.378 116.052 105.901 115.701 105.549C115.349 105.198 114.872 105 114.375 105H113.277L102.245 93.9679L115.511 72.9628ZM112.5 70.4084C112.5 70.6039 112.445 70.7953 112.34 70.9605L99.5262 91.2495L98.8258 90.5491C98.4741 90.1975 97.9972 90 97.5 90H82.5C82.1522 90.0007 81.8116 90.0982 81.5162 90.2817C81.2208 90.4652 80.9824 90.7273 80.8276 91.0388L80.823 91.0364L77.073 98.5364C76.93 98.8223 76.8625 99.1399 76.8768 99.4592C76.8912 99.7785 76.9869 100.089 77.155 100.361C77.323 100.633 77.5577 100.857 77.8369 101.013C78.1161 101.168 78.4304 101.25 78.75 101.25H89.2233L91.5177 103.544C90.4847 104.484 89.1376 105.003 87.7413 105H68.5825C68.8858 104.597 69.1564 104.171 69.3916 103.725L85.3634 73.2333C85.991 72.0471 86.1313 70.663 85.7544 69.375H111.467C111.741 69.3753 112.003 69.4843 112.197 69.678C112.391 69.8718 112.5 70.1345 112.5 70.4084ZM83.0136 95.0404L85.4733 97.5H81.7838L83.0136 95.0404ZM38.6444 105L51.5896 97.2329C51.8116 97.0998 52.0035 96.9221 52.1535 96.7111C52.3034 96.5001 52.408 96.2604 52.4607 96.007C52.5134 95.7536 52.5131 95.492 52.4597 95.2387C52.4064 94.9854 52.3011 94.7459 52.1507 94.5353L51.4315 93.5285L60.6509 86.25H66.8119L56.9905 105H38.6444ZM56.25 67.5C55.9438 67.5008 55.6426 67.5767 55.3726 67.721L51.4016 63.75L54.375 60.7766L61.0983 67.5H56.25ZM57.1512 71.25H66.7233L70.7639 75.2907L66.4384 82.5H60C59.5784 82.5001 59.1691 82.6421 58.8382 82.9033L49.2494 90.4735L44.286 83.5247L49.6947 80.3696C49.8939 80.2533 50.07 80.1013 50.2141 79.9212L57.1512 71.25ZM80.7599 69.375C81.0089 69.375 81.2536 69.4393 81.4704 69.5615C81.6873 69.6838 81.8689 69.8599 81.9978 70.0729C82.1267 70.2859 82.1984 70.5286 82.2061 70.7774C82.2138 71.0262 82.1572 71.2728 82.0416 71.4933L66.0698 101.985C65.6057 102.875 64.9112 103.624 64.059 104.154C63.2068 104.684 62.228 104.976 61.2246 104.998L79.4782 70.1507C79.6004 69.9165 79.7845 69.7203 80.0105 69.5835C80.2365 69.4468 80.4957 69.3746 80.7599 69.375ZM31.875 33.75V26.25H32.192C35.2175 26.2407 38.2063 25.5871 40.9595 24.3329C43.7128 23.0786 46.1674 21.2525 48.1601 18.9759C49.5508 22.054 51.6868 24.7368 54.375 26.7818V33.75C54.375 36.7337 53.1897 39.5952 51.0799 41.705C48.9701 43.8148 46.1087 45 43.125 45C40.1413 45 37.2798 43.8148 35.17 41.705C33.0602 39.5952 31.875 36.7337 31.875 33.75ZM55.6176 10.3068C56.3944 10.8924 57.025 11.6499 57.46 12.52C57.895 13.3901 58.1226 14.3491 58.125 15.3218V24.8131C54.4125 22.5666 51.7221 18.9614 50.625 14.7631V10.2386C51.3588 9.72407 52.2361 9.45374 53.1323 9.46598C54.0285 9.47822 54.898 9.77242 55.6176 10.3068ZM28.125 16.875C28.1278 14.3895 29.1164 12.0066 30.874 10.249C32.6315 8.49149 35.0144 7.50286 37.5 7.50004H42.6823C43.525 7.49706 44.3542 7.71241 45.0889 8.12511C45.8237 8.53782 46.439 9.1338 46.875 9.855V14.4661C45.2917 16.9234 43.1189 18.9457 40.5544 20.3489C37.9899 21.7521 35.1152 22.4916 32.192 22.5H28.125V16.875ZM7.58329 97.1197L12.5 65.98C12.6405 65.0959 12.9896 64.258 13.5183 63.5356C14.0471 62.8132 14.7403 62.2272 15.5406 61.826L29.802 54.6953L31.8749 56.2498C35.1243 58.6766 39.0693 59.9916 43.125 60V56.25C39.8805 56.2433 36.7245 55.1913 34.1249 53.2499L32.121 51.747L33.3389 46.875H35.8734C38.0925 48.1048 40.5879 48.75 43.125 48.75C45.6621 48.75 48.1575 48.1048 50.3766 46.875H52.911L54.4309 52.9548C54.4965 53.2172 54.6181 53.4623 54.7874 53.6733C54.9566 53.8843 55.1695 54.0561 55.4115 54.1771L70.7095 61.826C71.5097 62.2272 72.2029 62.8133 72.7317 63.5356C73.2604 64.258 73.6094 65.0959 73.7499 65.98L74.6022 71.3776L73.7607 72.9841L68.8258 68.0491C68.4741 67.6975 67.9972 67.5 67.5 67.5H66.4017L55.7008 56.7991C55.3491 56.4476 54.8722 56.2502 54.375 56.2502C53.8778 56.2502 53.4009 56.4476 53.0492 56.7991L47.4242 62.4241C47.2501 62.5982 47.1119 62.805 47.0177 63.0325C46.9235 63.26 46.875 63.5038 46.875 63.75C46.875 63.9963 46.9235 64.2401 47.0177 64.4676C47.1119 64.6951 47.2501 64.9018 47.4242 65.076L52.9042 70.556L47.5038 77.3063L28.125 88.6105V82.5H24.375V91.875C24.375 92.2049 24.462 92.5289 24.6272 92.8144C24.7924 93.0999 25.03 93.3367 25.3161 93.501C25.6021 93.6653 25.9264 93.7512 26.2562 93.7501C26.5861 93.7489 26.9098 93.6608 27.1947 93.4946L41.0331 85.4222L47.9188 95.0622L31.3556 105H12.3115L7.58329 97.1197ZM112.5 112.5H20.625V108.75H112.5V112.5ZM98.2766 105L87.0266 93.75H96.7234L107.973 105H98.2766Z" fill="#111111"/>
</svg>
