<svg width="368" height="337" viewBox="0 0 368 337" fill="none" xmlns="http://www.w3.org/2000/svg">
<g clip-path="url(#clip0)">
<path d="M189.5 238.569C188.655 238.571 187.845 238.905 187.248 239.5C186.65 240.096 186.314 240.903 186.313 241.744V242.799C186.312 254.459 195.873 263.982 207.579 263.982H324.421C336.127 263.982 345.688 254.459 345.688 242.799V241.744C345.686 240.903 345.35 240.096 344.752 239.5C344.155 238.905 343.345 238.571 342.5 238.569H189.5ZM193.584 244.932H338.416C337.253 251.975 331.837 257.619 324.421 257.619H207.579C200.163 257.619 194.747 251.975 193.584 244.932Z" fill="#666665"/>
<path fill-rule="evenodd" clip-rule="evenodd" d="M211.812 267.144V273.494H237.312V267.144H211.812Z" fill="#666665"/>
<path fill-rule="evenodd" clip-rule="evenodd" d="M294.688 267.144V273.494H320.188V267.144H294.688Z" fill="#666665"/>
<path fill-rule="evenodd" clip-rule="evenodd" d="M262.862 248.095C262.44 248.089 262.021 248.167 261.629 248.324C261.237 248.48 260.88 248.713 260.579 249.009C260.278 249.304 260.039 249.656 259.876 250.044C259.713 250.433 259.629 250.849 259.629 251.27C259.629 251.691 259.713 252.107 259.876 252.495C260.039 252.884 260.278 253.236 260.579 253.531C260.88 253.826 261.237 254.059 261.629 254.216C262.021 254.373 262.44 254.451 262.862 254.445H269.15C269.572 254.451 269.992 254.373 270.384 254.216C270.776 254.059 271.133 253.826 271.433 253.531C271.734 253.236 271.973 252.884 272.136 252.495C272.299 252.107 272.383 251.691 272.383 251.27C272.383 250.849 272.299 250.433 272.136 250.044C271.973 249.656 271.734 249.304 271.433 249.009C271.133 248.713 270.776 248.48 270.384 248.324C269.992 248.167 269.572 248.089 269.15 248.095H262.862Z" fill="#666665"/>
<path d="M266 111.57C229.069 111.57 199.062 141.459 199.063 178.245C199.062 215.031 229.069 244.92 266 244.92C302.931 244.92 332.938 215.031 332.938 178.245C332.938 141.459 302.931 111.57 266 111.57ZM266 117.92C299.486 117.92 326.563 144.891 326.562 178.245C326.563 211.599 299.486 238.57 266 238.57C232.515 238.57 205.437 211.599 205.438 178.245C205.437 144.891 232.515 117.92 266 117.92Z" fill="#666665"/>
<path d="M266 124.294C252.125 124.294 238.255 129.556 227.688 140.083C206.553 161.134 206.553 195.367 227.688 216.419C248.823 237.471 283.177 237.471 304.312 216.419C325.447 195.367 325.447 161.134 304.312 140.083C293.745 129.556 279.874 124.294 266 124.294ZM266 130.607C278.23 130.607 290.456 135.259 299.805 144.572C318.503 163.197 318.503 193.304 299.805 211.929C281.106 230.555 250.894 230.555 232.195 211.929C213.496 193.304 213.497 163.197 232.195 144.572C241.544 135.259 253.77 130.607 266 130.607Z" fill="#666665"/>
<path fill-rule="evenodd" clip-rule="evenodd" d="M232.195 140.082L227.688 144.572L299.805 216.419L304.312 211.929L232.195 140.082Z" fill="#666665"/>
<path fill-rule="evenodd" clip-rule="evenodd" d="M299.805 140.082L227.688 211.929L232.195 216.419L304.312 144.572L299.805 140.082Z" fill="#666665"/>
<path fill-rule="evenodd" clip-rule="evenodd" d="M245.717 131.103L241.21 135.593L308.82 202.95L313.327 198.46L245.717 131.103Z" fill="#666665"/>
<path fill-rule="evenodd" clip-rule="evenodd" d="M263.746 126.614L259.239 131.103L313.327 184.991L317.834 180.489L263.746 126.614Z" fill="#666665"/>
<path fill-rule="evenodd" clip-rule="evenodd" d="M223.18 153.551L218.673 158.041L288.537 227.643L293.044 223.153L223.18 153.551Z" fill="#666665"/>
<path fill-rule="evenodd" clip-rule="evenodd" d="M218.673 171.51L214.166 176L268.254 229.888L272.761 225.398L218.673 171.51Z" fill="#666665"/>
<path fill-rule="evenodd" clip-rule="evenodd" d="M286.283 131.103L218.673 198.46L223.18 202.95L290.79 135.593L286.283 131.103Z" fill="#666665"/>
<path fill-rule="evenodd" clip-rule="evenodd" d="M268.254 126.614L214.153 180.489L218.673 184.991L272.761 131.103L268.254 126.614Z" fill="#666665"/>
<path fill-rule="evenodd" clip-rule="evenodd" d="M313.327 171.51L259.239 225.398L263.746 229.888L317.834 176L313.327 171.51Z" fill="#666665"/>
<path fill-rule="evenodd" clip-rule="evenodd" d="M308.82 153.551L241.21 220.909L245.717 225.398L313.327 158.041L308.82 153.551Z" fill="#666665"/>
<path fill-rule="evenodd" clip-rule="evenodd" d="M266 95.6945C256.346 95.6945 246.691 97.161 237.35 100.085L233.166 101.4C232.52 101.603 231.956 102.005 231.555 102.55C231.154 103.094 230.938 103.751 230.937 104.426V121.057C230.931 121.478 231.01 121.896 231.167 122.287C231.325 122.677 231.558 123.032 231.855 123.332C232.152 123.631 232.505 123.869 232.895 124.032C233.284 124.194 233.703 124.278 234.125 124.278C234.547 124.278 234.966 124.194 235.355 124.032C235.745 123.869 236.098 123.631 236.395 123.332C236.692 123.032 236.925 122.677 237.083 122.287C237.24 121.896 237.318 121.478 237.312 121.057V106.757L239.267 106.147C256.714 100.686 275.286 100.686 292.733 106.147L294.687 106.757V121.057C294.681 121.478 294.76 121.896 294.917 122.287C295.075 122.677 295.308 123.032 295.605 123.332C295.902 123.631 296.255 123.869 296.645 124.032C297.034 124.194 297.453 124.278 297.875 124.278C298.297 124.278 298.716 124.194 299.105 124.032C299.495 123.869 299.848 123.631 300.145 123.332C300.442 123.032 300.675 122.677 300.833 122.287C300.99 121.896 301.068 121.478 301.062 121.057V104.426C301.062 103.751 300.846 103.094 300.445 102.55C300.044 102.005 299.48 101.603 298.834 101.4L294.65 100.085C285.309 97.161 275.654 95.6945 266 95.6945Z" fill="#666665"/>
</g>
<path d="M133.033 154.4C119.026 166.149 97.6344 155.973 97.6344 137.032C97.6344 132.052 99.2167 127.44 101.891 123.723C104.098 125.968 107.177 127.354 110.587 127.354H115.493C117.529 138.749 124.067 148.279 133.033 154.4Z" fill="#ED8573"/>
<path d="M199.157 83.9337C183.943 93.02 166.552 97.8183 148.831 97.8183H114.843V83.9337H199.157Z" fill="#ED8573"/>
<path d="M236.089 265.551L233.844 213.483C233.403 203.278 227.012 194.275 217.519 190.485L186.057 177.95L186.106 170.406C186.106 168.738 184.487 167.548 182.893 168.064L177.766 169.707L173.117 171.204C169.401 172.406 167.009 175.999 167.352 179.888L168.076 195.023H145.924L146.648 179.888C146.991 175.999 144.6 172.406 140.883 171.204C135.168 169.364 137.398 170.08 131.107 168.064C129.513 167.548 127.894 168.738 127.894 170.406L127.943 177.95L96.506 190.473C86.9756 194.263 80.573 203.303 80.1682 213.557L78.1076 265.551L72.0974 306.641H242.234L236.089 265.551Z" fill="#F8F5F1"/>
<path d="M179.792 28.9027C177.727 18.3052 168.31 10.2994 157.001 10.2994C145.691 10.2994 136.275 18.3064 134.209 28.9052C121.056 17.2982 99.8975 26.4349 99.8975 44.1268C99.8975 53.4573 106.213 61.3257 114.849 63.753V83.9373H199.156V63.7444C207.792 61.3171 214.108 53.4487 214.108 44.128C214.106 26.4778 192.974 17.2675 179.792 28.9027Z" fill="#F8F5F1"/>
<path d="M170.368 130.617C168.823 130.04 166.995 130.874 166.419 132.407C164.96 136.247 161.181 138.835 156.999 138.835C152.816 138.835 149.038 136.259 147.591 132.407C147.013 130.874 145.199 130.04 143.654 130.617C142.013 131.242 141.28 133.016 141.85 134.554V134.566C144.171 140.727 150.117 144.967 156.999 144.967C163.88 144.967 169.834 140.722 172.147 134.578C172.749 132.996 171.951 131.218 170.368 130.617Z" fill="#666665"/>
<path d="M137.384 106.126C135.69 106.126 134.317 107.498 134.317 109.192V111.649C134.317 113.343 135.69 114.715 137.384 114.715C139.078 114.715 140.45 113.343 140.45 111.649V109.192C140.45 107.5 139.078 106.126 137.384 106.126Z" fill="#666665"/>
<path d="M176.616 106.126C174.923 106.126 173.55 107.498 173.55 109.192V111.649C173.55 113.343 174.923 114.715 176.616 114.715C178.31 114.715 179.683 113.343 179.683 111.649V109.192C179.683 107.5 178.31 106.126 176.616 106.126Z" fill="#666665"/>
<path d="M157 123.342C158.694 123.342 160.066 121.969 160.066 120.275V107.66C160.066 105.966 158.694 104.594 157 104.594C155.306 104.594 153.934 105.966 153.934 107.66V120.274C153.934 121.968 155.306 123.342 157 123.342Z" fill="#666665"/>
<path d="M149.947 209.742C149.947 208.048 148.575 206.676 146.881 206.676C145.187 206.676 143.814 208.048 143.814 209.742V211.275C143.814 212.969 145.187 214.342 146.881 214.342C148.575 214.342 149.947 212.969 149.947 211.275V209.742Z" fill="#666665"/>
<path d="M171.259 209.742C171.259 208.048 169.886 206.676 168.192 206.676C166.498 206.676 165.126 208.048 165.126 209.742V211.275C165.126 212.969 166.498 214.342 168.192 214.342C169.886 214.342 171.259 212.969 171.259 211.275V209.742Z" fill="#666665"/>
<path d="M149.947 233.047C149.947 231.353 148.575 229.98 146.881 229.98C145.187 229.98 143.814 231.353 143.814 233.047V234.58C143.814 236.274 145.187 237.646 146.881 237.646C148.575 237.646 149.947 236.274 149.947 234.58V233.047Z" fill="#666665"/>
<path d="M171.259 233.047C171.259 231.353 169.886 229.98 168.192 229.98C166.498 229.98 165.126 231.353 165.126 233.047V234.58C165.126 236.274 166.498 237.646 168.192 237.646C169.886 237.646 171.259 236.274 171.259 234.58V233.047Z" fill="#666665"/>
<path d="M149.947 256.352C149.947 254.658 148.575 253.285 146.881 253.285C145.187 253.285 143.814 254.658 143.814 256.352V257.885C143.814 259.579 145.187 260.951 146.881 260.951C148.575 260.951 149.947 259.579 149.947 257.885V256.352Z" fill="#666665"/>
<path d="M171.259 256.352C171.259 254.658 169.886 253.285 168.192 253.285C166.498 253.285 165.126 254.658 165.126 256.352V257.885C165.126 259.579 166.498 260.951 168.192 260.951C169.886 260.951 171.259 259.579 171.259 257.885V256.352Z" fill="#666665"/>
<path d="M146.881 276.59C145.187 276.59 143.814 277.962 143.814 279.656V281.189C143.814 282.883 145.187 284.256 146.881 284.256C148.575 284.256 149.947 282.883 149.947 281.189V279.656C149.947 277.962 148.575 276.59 146.881 276.59Z" fill="#666665"/>
<path d="M168.192 276.59C166.498 276.59 165.126 277.962 165.126 279.656V281.189C165.126 282.883 166.498 284.256 168.192 284.256C169.886 284.256 171.259 282.883 171.259 281.189V279.656C171.259 277.962 169.886 276.59 168.192 276.59Z" fill="#666665"/>
<path d="M210.699 32.4793C211.926 31.3264 211.987 29.3884 210.845 28.1618C210.845 28.1496 210.833 28.1496 210.833 28.1496C209.717 26.9598 207.68 26.8985 206.491 28.0147C205.221 29.2326 205.249 31.162 206.357 32.3444C207.488 33.5477 209.426 33.6703 210.699 32.4793Z" fill="#666665"/>
<path d="M109.065 220.878C107.536 220.146 105.706 220.791 104.974 222.318C104.457 223.399 92.5834 248.715 104.35 270.406L102.326 306.869C102.233 308.56 103.527 310.006 105.217 310.101C106.935 310.19 108.356 308.879 108.449 307.21L110.522 269.861C110.554 269.27 110.415 268.682 110.122 268.168C99.2375 249.149 110.37 225.253 110.506 224.969C111.236 223.439 110.592 221.609 109.065 220.878Z" fill="#666665"/>
<path d="M209.031 222.314C208.319 220.843 206.418 220.168 204.934 220.879C203.347 221.646 202.782 223.481 203.499 224.964C204.726 227.428 214.235 250.049 203.879 268.163C203.585 268.679 203.438 269.267 203.475 269.856L203.905 277.363C203.984 278.863 205.151 280.257 207.131 280.257C208.824 280.159 210.123 278.712 210.024 277.019L209.644 270.408C221.667 248.217 209.031 223.541 209.031 222.314Z" fill="#666665"/>
<path d="M208.847 310.492C210.527 310.394 211.829 308.946 211.731 307.254L211.41 301.513C211.314 299.833 209.891 298.521 208.172 298.631C206.585 298.702 205.199 300.067 205.278 301.857L205.61 307.597C205.688 309.11 206.864 310.492 208.847 310.492Z" fill="#666665"/>
<path d="M210.711 289.26C210.625 287.58 209.178 286.28 207.485 286.378C205.747 286.482 204.491 287.954 204.591 289.616C204.689 291.235 206.026 292.511 207.645 292.511C209.361 292.511 210.816 291.055 210.711 289.26Z" fill="#666665"/>
<path d="M133.159 158.144C133.163 158.147 133.166 158.148 133.169 158.149V165.505L132.04 165.143C128.392 163.984 124.843 166.732 124.827 170.405L124.864 175.876L95.3653 187.626C85.6374 191.49 78.7319 200.345 77.3348 210.71C77.1079 212.379 78.2781 213.925 79.9719 214.157C81.6155 214.377 83.1978 213.175 83.4186 211.532C84.5102 203.351 89.9684 196.371 97.6344 193.317L129.071 180.794C130.236 180.34 131.009 179.187 131.009 177.924L130.96 171.239L139.939 174.122C142.072 174.812 143.756 176.802 143.585 179.74C143.188 188.061 143.32 185.294 142.999 191.956H129.096C127.186 191.956 125.74 193.685 126.077 195.564C134.758 243.919 128.562 305.707 128.498 306.325C128.314 308.125 129.723 309.706 131.553 309.706C133.105 309.706 134.437 308.531 134.599 306.953C134.662 306.341 140.648 246.703 132.731 198.089H180.611C182.305 198.089 183.678 196.716 183.678 195.022C183.678 193.328 182.305 191.956 180.611 191.956H171C170.896 189.809 170.996 191.897 170.414 179.74C170.246 176.878 171.883 174.828 174.062 174.122L183.039 171.239L182.99 177.924C182.977 179.187 183.762 180.34 184.915 180.794L216.377 193.329C224.741 196.666 230.396 204.626 230.775 213.617L233.02 265.684L239.202 307.093C239.456 308.797 241.094 309.936 242.685 309.669C244.353 309.424 245.52 307.854 245.262 306.185L239.142 265.267L236.909 213.347C236.408 201.952 229.243 191.87 218.658 187.638L189.136 175.876L189.172 170.43C189.157 166.59 185.375 163.983 181.936 165.155C181.923 165.155 181.923 165.155 181.923 165.155L180.831 165.505V158.115C191.045 151.856 198.263 141.944 200.998 130.424H203.412C211.792 130.424 218.61 123.662 218.61 115.35C218.61 107.037 211.792 100.276 203.412 100.276H202.222C202.222 87.1938 202.222 86.5131 202.222 65.9375C212.475 61.9132 218.544 51.4126 216.915 40.6458C216.67 39.0145 215.075 37.8247 213.419 38.07C211.721 38.3264 210.595 39.9111 210.842 41.5535C212.414 52.3337 203.906 61.5415 193.327 61.4606C191.706 61.3465 190.176 62.6319 190.065 64.3148C189.958 65.9068 191.031 67.5946 193.485 67.5946C194.357 67.5946 195.225 67.5333 196.088 67.4376C196.088 74.4891 196.086 73.8096 196.086 80.8635H181.141V75.3845C181.141 73.6906 179.769 72.3181 178.075 72.3181C176.381 72.3181 175.008 73.6906 175.008 75.3845V80.8635H160.064V75.3845C160.064 73.6906 158.691 72.3181 156.998 72.3181C155.304 72.3181 153.931 73.6906 153.931 75.3845V80.8635H138.987V75.3845C138.987 73.6906 137.614 72.3181 135.92 72.3181C134.226 72.3181 132.854 73.6906 132.854 75.3845V80.8635H117.914C117.914 77.3973 117.91 74.126 117.91 67.4413C118.813 67.5394 120.252 67.6388 121.117 67.5762C122.796 67.4535 124.037 66.0013 123.928 64.3209C123.82 62.6405 122.331 61.3759 120.672 61.4593C110.875 61.5636 102.958 53.678 102.958 44.128C102.997 29.1517 120.946 21.3005 132.174 31.2C133.931 32.7431 136.762 31.8379 137.216 29.4829C139.03 20.1487 147.347 13.3658 156.988 13.3658H157.012C166.641 13.3658 174.957 20.1487 176.785 29.4829C177.233 31.806 180.051 32.7602 181.826 31.2C186.003 27.4995 191.744 25.9786 197.439 27.226C199.07 27.6062 200.726 26.5514 201.106 24.92C201.474 23.2642 200.431 21.6206 198.787 21.2526C192.974 19.9279 186.668 20.8847 181.518 23.8897C177.728 14.1692 168.218 7.23669 157 7.23669C145.779 7.23669 136.272 14.1692 132.481 23.8934C116.76 14.7273 96.8629 26.008 96.8249 44.1317C96.8519 54.0779 103.012 62.5105 111.777 65.9522V100.284H110.587C102.207 100.284 95.3886 107.046 95.3886 115.358C95.3886 118.476 96.349 121.446 98.1067 123.942C95.7921 127.884 94.568 132.36 94.568 137.032C94.568 157.319 116.716 169.48 133.159 158.144ZM100.701 137.032C100.701 133.937 101.395 130.955 102.727 128.26C106.772 130.693 110.378 130.422 113.001 130.422C115.254 139.893 120.507 148.205 127.765 154.259C115.375 160.739 100.701 151.39 100.701 137.032ZM186.433 87C174.596 92.0952 161.8 94.7519 148.831 94.7519H117.91V87H186.433ZM172.173 168.284C166.994 169.961 163.863 174.918 164.291 180.091L164.859 191.957H149.14L149.708 180.091C150.299 172.944 145.84 169.576 139.302 167.472V161.306C150.34 165.946 163.238 166.137 174.699 161.292V167.472C173.965 167.709 174.49 167.541 172.173 168.284ZM157.166 158.731C135.565 158.824 117.91 141.589 117.91 120.093C117.91 86.507 117.91 111.633 117.91 100.885H148.831C165.325 100.885 181.55 96.8358 196.091 89.1576C196.091 103.203 196.087 100.783 196.087 120.089C196.087 141.597 178.458 158.64 157.166 158.731ZM203.413 106.412C208.411 106.412 212.479 110.422 212.479 115.352C212.479 120.283 208.413 124.294 203.413 124.294H202.021C202.162 122.769 202.223 121.406 202.223 120.094V106.412H203.413ZM110.587 106.417H111.777V120.093C111.777 121.529 111.881 123.311 111.974 124.288C110.696 124.288 110.322 124.312 109.533 124.223C105.036 123.715 101.521 119.97 101.521 115.357C101.523 110.427 105.589 106.417 110.587 106.417Z" fill="#666665"/>
<path d="M79.8983 220.303C78.1824 220.242 76.7829 221.554 76.7093 223.247C76.6541 225.035 78.0646 226.436 79.7879 226.436C81.4315 226.436 82.7808 225.136 82.8421 223.492C82.9132 221.858 81.6683 220.381 79.8983 220.303Z" fill="#666665"/>
<path d="M79.4199 232.556C77.6537 232.483 76.3045 233.807 76.2297 235.5L75.0522 265.256L69.0665 306.199C68.7795 308.06 70.2526 309.707 72.0974 309.707C73.6048 309.707 74.905 308.579 75.127 307.082L81.1359 265.992L82.3502 235.745C82.4299 233.993 81.0304 232.629 79.4199 232.556Z" fill="#666665"/>
<defs>
<clipPath id="clip0">
<rect width="204" height="254" fill="white" transform="translate(164 83)"/>
</clipPath>
</defs>
</svg>
