<svg width="94" height="114" viewBox="0 0 94 114" fill="none" xmlns="http://www.w3.org/2000/svg">
<path d="M58.25 81.375L62 66.375H56.375L47 73.1925L58.25 81.375Z" fill="#F0975E"/>
<path d="M47 73.1924L39.4044 78.7161L43.25 85.1249H50.75L54.5956 78.7161L47 73.1924Z" fill="#ED8573"/>
<path d="M43.25 85.125L39.5 111.375H54.5L50.75 85.125H43.25Z" fill="#ED8573"/>
<path d="M47 73.1925L37.625 66.375H32L35.75 81.375L47 73.1925Z" fill="#ED8573"/>
<path d="M69.5 66.375H67.625L58.25 111.375H92V88.875C92 82.9076 89.6295 77.1847 85.4099 72.9651C81.1903 68.7455 75.4674 66.375 69.5 66.375Z" fill="#F0975E"/>
<path d="M26.375 66.375H24.5C18.5326 66.375 12.8097 68.7455 8.5901 72.9651C4.37053 77.1847 2 82.9076 2 88.875V111.375H35.75L26.375 66.375Z" fill="#ED8573"/>
<path d="M82.625 2.625H11.375C10.3804 2.625 9.42661 3.02009 8.72335 3.72335C8.02009 4.42661 7.625 5.38044 7.625 6.375V13.875H86.375V6.375C86.375 5.38044 85.9799 4.42661 85.2767 3.72335C84.5734 3.02009 83.6196 2.625 82.625 2.625Z" fill="#ED8573"/>
<path d="M69.5 64.5H58.25V60.75H82.625C84.1168 60.75 85.5476 60.1574 86.6025 59.1025C87.6574 58.0476 88.25 56.6168 88.25 55.125V6.375C88.25 4.88316 87.6574 3.45242 86.6025 2.39752C85.5476 1.34263 84.1168 0.75 82.625 0.75H11.375C9.88316 0.75 8.45242 1.34263 7.39752 2.39752C6.34263 3.45242 5.75 4.88316 5.75 6.375V55.125C5.75 56.6168 6.34263 58.0476 7.39752 59.1025C8.45242 60.1574 9.88316 60.75 11.375 60.75H35.75V64.5H24.5C18.0376 64.5074 11.8421 67.0779 7.27249 71.6475C2.70291 76.2171 0.132444 82.4126 0.125 88.875V111.375C0.125 111.872 0.322544 112.349 0.674175 112.701C1.02581 113.052 1.50272 113.25 2 113.25H92C92.4973 113.25 92.9742 113.052 93.3258 112.701C93.6775 112.349 93.875 111.872 93.875 111.375V88.875C93.8676 82.4126 91.2971 76.2171 86.7275 71.6475C82.1579 67.0779 75.9624 64.5074 69.5 64.5ZM60.0688 81.8306L63.4644 68.25H65.3206L56.7256 109.5H56.1275L52.7075 85.5694L55.3587 81.5906L57.1475 82.8919C57.3957 83.0723 57.6844 83.189 57.9882 83.2318C58.292 83.2747 58.6017 83.2423 58.8901 83.1375C59.1785 83.0327 59.4368 82.8588 59.6423 82.6309C59.8478 82.4031 59.9942 82.1283 60.0688 81.8306ZM49.7563 83.25H44.2625L41.675 79.3838L47 75.5119L52.325 79.3838L49.7563 83.25ZM44.8813 87H49.13L52.3437 109.5H41.6619L44.8813 87ZM57.1119 78.2231L50.1875 73.1925L56.9844 68.25H59.5981L57.1119 78.2231ZM11.375 4.5H82.625C83.1223 4.5 83.5992 4.69754 83.9508 5.04918C84.3025 5.40081 84.5 5.87772 84.5 6.375V12H9.5V6.375C9.5 5.87772 9.69754 5.40081 10.0492 5.04918C10.4008 4.69754 10.8777 4.5 11.375 4.5ZM9.5 55.125V15.75H84.5V55.125C84.5 55.6223 84.3025 56.0992 83.9508 56.4508C83.5992 56.8025 83.1223 57 82.625 57H11.375C10.8777 57 10.4008 56.8025 10.0492 56.4508C9.69754 56.0992 9.5 55.6223 9.5 55.125ZM54.5 60.75V65.4206L47 70.875L39.5 65.4206V60.75H54.5ZM37.0156 68.25L43.8125 73.1925L36.8938 78.2231L34.4019 68.25H37.0156ZM33.9313 81.8306C34.0058 82.1283 34.1522 82.4031 34.3577 82.6309C34.5632 82.8588 34.8215 83.0327 35.1099 83.1375C35.3983 83.2423 35.708 83.2747 36.0118 83.2318C36.3156 83.189 36.6043 83.0723 36.8525 82.8919L38.6413 81.5906L41.2925 85.5694L37.8725 109.5H37.2744L28.6794 68.25H30.5356L33.9313 81.8306ZM3.875 88.875C3.88145 83.4069 6.05651 78.1646 9.92305 74.298C13.7896 70.4315 19.0319 68.2565 24.5 68.25H24.8506L33.4456 109.5H22.625V87C22.625 86.5027 22.4275 86.0258 22.0758 85.6742C21.7242 85.3225 21.2473 85.125 20.75 85.125C20.2527 85.125 19.7758 85.3225 19.4242 85.6742C19.0725 86.0258 18.875 86.5027 18.875 87V109.5H3.875V88.875ZM90.125 109.5H75.125V88.875C75.125 88.3777 74.9275 87.9008 74.5758 87.5492C74.2242 87.1975 73.7473 87 73.25 87C72.7527 87 72.2758 87.1975 71.9242 87.5492C71.5725 87.9008 71.375 88.3777 71.375 88.875V109.5H60.5544L69.1494 68.25H69.5C74.9681 68.2565 80.2104 70.4315 84.077 74.298C87.9435 78.1646 90.1185 83.4069 90.125 88.875V109.5Z" fill="#111111"/>
<path d="M18.875 23.25C18.3777 23.25 17.9008 23.4475 17.5492 23.7992C17.1975 24.1508 17 24.6277 17 25.125V51.375C17 51.8723 17.1975 52.3492 17.5492 52.7008C17.9008 53.0525 18.3777 53.25 18.875 53.25C19.3723 53.25 19.8492 53.0525 20.2008 52.7008C20.5525 52.3492 20.75 51.8723 20.75 51.375V25.125C20.75 24.6277 20.5525 24.1508 20.2008 23.7992C19.8492 23.4475 19.3723 23.25 18.875 23.25Z" fill="#111111"/>
<path d="M25.3344 28.56L30.9594 32.31C31.1642 32.4466 31.394 32.5416 31.6356 32.5895C31.8771 32.6373 32.1258 32.6371 32.3673 32.5889C32.6087 32.5407 32.8384 32.4454 33.043 32.3084C33.2477 32.1714 33.4233 31.9955 33.56 31.7906C33.6967 31.5858 33.7916 31.356 33.8395 31.1144C33.8873 30.8729 33.8872 30.6242 33.8389 30.3827C33.7907 30.1412 33.6954 29.9116 33.5584 29.707C33.4214 29.5023 33.2455 29.3266 33.0406 29.19L29.75 27L33.035 24.81C33.2399 24.6733 33.4158 24.4977 33.5528 24.293C33.6897 24.0884 33.7851 23.8587 33.8333 23.6172C33.8815 23.3758 33.8817 23.1271 33.8339 22.8856C33.786 22.644 33.691 22.4142 33.5544 22.2094C33.4177 22.0045 33.2421 21.8286 33.0374 21.6916C32.8327 21.5546 32.6031 21.4593 32.3616 21.4111C32.1201 21.3628 31.8715 21.3626 31.63 21.4105C31.3884 21.4584 31.1586 21.5533 30.9538 21.69L25.3288 25.44C25.072 25.6112 24.8614 25.8432 24.7158 26.1153C24.5702 26.3875 24.494 26.6913 24.494 27C24.494 27.3086 24.5702 27.6125 24.7158 27.8846C24.8614 28.1568 25.072 28.3888 25.3288 28.56H25.3344Z" fill="#111111"/>
<path d="M45.44 31.7906C45.5766 31.9955 45.7523 32.1715 45.9569 32.3085C46.1616 32.4454 46.3912 32.5408 46.6327 32.589C46.8742 32.6372 47.1228 32.6374 47.3644 32.5895C47.606 32.5417 47.8358 32.4467 48.0406 32.31L53.6656 28.56C53.9224 28.3888 54.1329 28.1568 54.2786 27.8846C54.4242 27.6125 54.5004 27.3086 54.5004 27C54.5004 26.6913 54.4242 26.3875 54.2786 26.1153C54.1329 25.8432 53.9224 25.6112 53.6656 25.44L48.0406 21.69C47.8357 21.5533 47.606 21.4584 47.3644 21.4105C47.1228 21.3626 46.8742 21.3628 46.6327 21.4111C46.3912 21.4593 46.1616 21.5546 45.957 21.6916C45.7523 21.8286 45.5766 22.0045 45.44 22.2094C45.3033 22.4142 45.2084 22.644 45.1605 22.8856C45.1127 23.1271 45.1128 23.3758 45.1611 23.6172C45.2585 24.105 45.5456 24.534 45.9594 24.81L49.25 27L45.965 29.19C45.7597 29.3262 45.5832 29.5015 45.4456 29.706C45.3081 29.9104 45.2122 30.14 45.1635 30.3815C45.1147 30.623 45.114 30.8718 45.1615 31.1136C45.2089 31.3554 45.3036 31.5854 45.44 31.7906Z" fill="#111111"/>
<path d="M37.0325 34.4044C37.5042 34.5611 38.0188 34.5241 38.4632 34.3015C38.9076 34.079 39.2454 33.6891 39.4025 33.2175L43.1525 21.9675C43.2303 21.7336 43.2613 21.4866 43.2437 21.2408C43.226 20.9949 43.1601 20.7549 43.0497 20.5344C42.9394 20.314 42.7866 20.1175 42.6003 19.9561C42.414 19.7947 42.1977 19.6716 41.9637 19.5938C41.7298 19.516 41.4829 19.485 41.237 19.5026C40.9911 19.5202 40.7511 19.5861 40.5307 19.6965C40.3102 19.8069 40.1137 19.9596 39.9523 20.146C39.7909 20.3323 39.6678 20.5486 39.59 20.7825L35.84 32.0325C35.7623 32.2665 35.7314 32.5136 35.7493 32.7596C35.7672 33.0055 35.8334 33.2455 35.9442 33.4658C36.055 33.6862 36.2081 33.8825 36.3949 34.0435C36.5816 34.2046 36.7983 34.3272 37.0325 34.4044Z" fill="#111111"/>
<path d="M24.5 38.25H35.75V42H24.5V38.25Z" fill="#111111"/>
<path d="M39.5 38.25H43.25V42H39.5V38.25Z" fill="#111111"/>
<path d="M30.125 43.875H52.625V47.625H30.125V43.875Z" fill="#111111"/>
<path d="M63.875 43.875H77V47.625H63.875V43.875Z" fill="#111111"/>
<path d="M30.125 49.5H33.875V53.25H30.125V49.5Z" fill="#111111"/>
<path d="M37.625 49.5H60.125V53.25H37.625V49.5Z" fill="#111111"/>
<path d="M63.875 49.5H71.375V53.25H63.875V49.5Z" fill="#111111"/>
<path d="M56.375 43.875H60.125V47.625H56.375V43.875Z" fill="#111111"/>
<path d="M13.25 6.375H17V10.125H13.25V6.375Z" fill="#111111"/>
<path d="M20.75 6.375H24.5V10.125H20.75V6.375Z" fill="#111111"/>
<path d="M28.25 6.375H32V10.125H28.25V6.375Z" fill="#111111"/>
</svg>
