<svg width="120" height="120" viewBox="0 0 120 120" fill="none" xmlns="http://www.w3.org/2000/svg">
<g clip-path="url(#clip0)">
<path d="M37.1819 87.0523V100.569C37.1819 102.911 38.752 104.956 41.0105 105.577C45.5559 106.825 49.2422 110.148 50.9876 114.464C51.7676 116.393 53.6384 117.656 55.7187 117.656H64.2809C66.3612 117.656 68.2322 116.393 69.0119 114.464C70.7573 110.148 74.4436 106.825 78.9891 105.577C81.2475 104.956 82.8176 102.911 82.8176 100.569V87.0523C82.8176 85.1205 81.2517 83.5547 79.32 83.5547H40.6795C38.748 83.5547 37.1819 85.1205 37.1819 87.0523Z" fill="#ED8573"/>
<path d="M69.8677 112.331C68.6667 111.849 67.3017 112.432 66.8201 113.634C66.4177 114.638 65.3972 115.312 64.2811 115.312H55.7189C54.6028 115.312 53.5824 114.638 53.1799 113.634C52.6983 112.432 51.334 111.85 50.1324 112.331C48.931 112.812 48.3474 114.177 48.829 115.378C49.9547 118.186 52.6589 120 55.7189 120H64.2811C67.3411 120 70.0453 118.186 71.1708 115.378C71.6527 114.177 71.0691 112.812 69.8677 112.331Z" fill="#111111"/>
<path d="M97.3924 100.257C96.7559 96.9745 94.7337 94.133 91.8431 92.4548C92.3688 92.0255 92.862 91.5506 93.312 91.0277C95.5317 88.4489 96.5147 85.0399 96.0082 81.6755C95.1858 76.2089 92.8592 71.1012 89.28 66.9042C86.6002 63.762 83.3063 61.2298 79.6198 59.4504C84.1313 54.6377 86.8988 48.1713 86.8988 41.07C86.8985 28.7808 78.6141 18.3898 67.3367 15.1884C68.8727 13.3545 69.7109 11.0632 69.7109 8.64211C69.7111 3.8768 65.8341 0 61.069 0C61.0688 0 61.0685 0 61.0683 0C59.1448 0 57.3431 0.625547 55.9957 1.76109C54.5065 3.01594 53.6864 4.77961 53.6862 6.72703C53.6862 8.02125 54.7355 9.07078 56.0299 9.07078C57.3242 9.07078 58.3737 8.02148 58.3737 6.72703C58.3737 6.16945 58.5898 5.70469 59.0163 5.34516C59.5198 4.92094 60.2485 4.68727 61.0685 4.68727H61.0688C63.2494 4.68727 65.0236 6.46101 65.0236 8.64164C65.0236 10.1187 64.4484 11.5071 63.4041 12.5515C62.3597 13.5956 60.9715 14.1708 59.4949 14.1708C59.4947 14.1708 59.4947 14.1708 59.4945 14.1708C59.437 14.1708 59.3808 14.1752 59.3245 14.1795C44.8036 14.5395 33.1015 26.4637 33.1013 41.0698C33.1013 48.1711 35.8688 54.6375 40.3803 59.4502C36.694 61.2295 33.4001 63.7615 30.7203 66.904C27.1411 71.1009 24.8145 76.2087 23.9918 81.675C23.4856 85.0397 24.4683 88.4487 26.6881 91.0275C27.1381 91.5504 27.6312 92.0255 28.1569 92.4546C25.2664 94.1327 23.2439 96.9743 22.6076 100.256C21.9694 103.547 22.7883 106.949 24.8539 109.588L29.873 116.002C31.9008 118.593 34.9812 119.987 38.1056 119.987C39.8794 119.987 41.6677 119.538 43.2853 118.604C47.7528 116.024 49.6671 110.471 47.7385 105.687L44.6937 98.134C44.4903 97.6294 44.2498 97.1454 43.9814 96.6804H61.1719C62.4663 96.6804 63.5156 95.6309 63.5156 94.3366C63.5156 93.0424 62.4663 91.9929 61.1719 91.9929H39.526V87.052C39.526 86.4157 40.0435 85.8982 40.6798 85.8982H79.3205C79.9566 85.8982 80.4743 86.4157 80.4743 87.052V92.317C78.1488 93.5918 76.313 95.6365 75.3061 98.134L72.2613 105.687C70.3327 110.471 72.247 116.024 76.7145 118.604C78.3324 119.538 80.1199 119.987 81.8942 119.987C85.0184 119.987 88.0992 118.593 90.127 116.002L95.1459 109.588C97.212 106.949 98.0306 103.547 97.3924 100.257ZM60 18.8585C72.247 18.8587 82.2113 28.8227 82.2115 41.07C82.2115 53.3173 72.2475 63.2812 60 63.2815C47.7528 63.2812 37.7885 53.3173 37.7885 41.07C37.7888 28.8227 47.753 18.8587 60 18.8585ZM28.6271 82.3727C29.9688 73.4541 35.9154 66.0851 44.2636 62.8713C48.6914 66.0762 54.1285 67.9687 60 67.9687C65.8716 67.9687 71.3086 66.0762 75.7364 62.8713C84.0846 66.0851 90.0312 73.4541 91.373 82.3727C91.6758 84.3862 91.0877 86.4262 89.7593 87.9696C88.5837 89.3355 86.9365 90.1844 85.1616 90.3619V87.0523C85.1616 84.6708 83.7284 82.6188 81.6797 81.7104V78.8672C81.6797 77.573 80.6304 76.5234 79.3359 76.5234C78.0415 76.5234 76.9922 77.573 76.9922 78.8672V81.2109H43.0233V78.8672C43.0233 77.573 41.974 76.5234 40.6795 76.5234C39.3851 76.5234 38.3358 77.573 38.3358 78.8672V81.7034C36.2787 82.6083 34.8382 84.6647 34.8382 87.0523V90.3619C33.0633 90.1844 31.4163 89.3355 30.2405 87.9696C28.9123 86.4262 28.3242 84.3862 28.6271 82.3727ZM40.9418 114.544C38.4851 115.963 35.3133 115.348 33.5646 113.114L28.5455 106.7C27.3167 105.13 26.8296 103.107 27.2093 101.149C27.589 99.1917 28.7972 97.4972 30.5241 96.5002C32.2507 95.5031 34.3224 95.3046 36.2074 95.9541C38.0925 96.604 39.6012 98.0377 40.3467 99.8866L43.3915 107.44C44.452 110.072 43.3988 113.126 40.9418 114.544ZM91.4545 106.7L86.4356 113.113C84.687 115.348 81.5156 115.963 79.0584 114.544C76.6013 113.126 75.5482 110.071 76.609 107.44L79.6538 99.8862C80.3993 98.0369 81.908 96.6035 83.7931 95.9536C84.5231 95.7021 85.2811 95.5777 86.0363 95.5777C87.2309 95.5777 88.4184 95.8891 89.4764 96.4999C91.2033 97.4969 92.4113 99.1915 92.7912 101.149C93.1704 103.106 92.6834 105.13 91.4545 106.7Z" fill="#111111"/>
<path d="M72.1383 95.9927C72.5742 95.557 72.825 94.9523 72.825 94.3359C72.825 93.7195 72.5742 93.1148 72.1383 92.6789C71.7024 92.243 71.0977 91.9922 70.4813 91.9922C69.8649 91.9922 69.2602 92.2427 68.8242 92.6789C68.3883 93.1151 68.1375 93.7195 68.1375 94.3359C68.1375 94.9547 68.3883 95.557 68.8242 95.9927C69.2602 96.431 69.8649 96.6797 70.4813 96.6797C71.0977 96.6797 71.7024 96.431 72.1383 95.9927Z" fill="#111111"/>
<path d="M53.1933 52.3705C54.8663 54.4346 57.3474 55.6182 60 55.6182C62.6527 55.6182 65.134 54.4344 66.8067 52.3705C67.6219 51.3648 67.4674 49.8889 66.4617 49.074C65.4563 48.2588 63.9804 48.4138 63.1652 49.419C62.3864 50.3799 61.2326 50.931 60 50.931C58.7674 50.931 57.6134 50.3797 56.8348 49.419C56.0199 48.4133 54.544 48.2593 53.5383 49.074C52.5326 49.8889 52.3781 51.3648 53.1933 52.3705Z" fill="#111111"/>
<path d="M49.6802 42.7272C49.9786 42.4288 50.4645 42.4288 50.7631 42.7272C51.2208 43.1847 51.8206 43.4136 52.4203 43.4136C53.0201 43.4136 53.6201 43.1847 54.0776 42.7272C54.9928 41.8119 54.9928 40.3279 54.0776 39.4124C51.9516 37.2864 48.4922 37.2864 46.3657 39.4124C45.4505 40.3276 45.4502 41.8115 46.3657 42.7269C47.2809 43.6424 48.765 43.6424 49.6802 42.7272Z" fill="#111111"/>
<path d="M67.5797 43.4134C68.1795 43.4134 68.7795 43.1845 69.237 42.727C69.5353 42.4288 70.0212 42.4284 70.3198 42.727C71.235 43.6424 72.7191 43.6422 73.6343 42.7267C74.5496 41.8115 74.5496 40.3277 73.6343 39.4122C71.5081 37.2864 68.0485 37.2864 65.9224 39.4122C65.0072 40.3274 65.0072 41.8115 65.9224 42.727C66.3799 43.1847 66.9799 43.4134 67.5797 43.4134Z" fill="#111111"/>
</g>
<defs>
<clipPath id="clip0">
<rect width="120" height="120" fill="white"/>
</clipPath>
</defs>
</svg>
