<svg width="24" height="24" viewBox="0 0 24 24" fill="none" xmlns="http://www.w3.org/2000/svg">
<path fill-rule="evenodd" clip-rule="evenodd" d="M0 2C0 0.895431 0.700772 0 1.56522 0H22.4348C23.2992 0 24 0.895431 24 2C24 3.10457 23.2992 4 22.4348 4H1.56522C0.700772 4 0 3.10457 0 2ZM0 12C0 10.8954 0.700772 10 1.56522 10H22.4348C23.2992 10 24 10.8954 24 12C24 13.1046 23.2992 14 22.4348 14H1.56522C0.700772 14 0 13.1046 0 12ZM1.56522 20C0.700772 20 0 20.8954 0 22C0 23.1046 0.700772 24 1.56522 24H22.4348C23.2992 24 24 23.1046 24 22C24 20.8954 23.2992 20 22.4348 20H1.56522Z" fill="#666665"/>
</svg>
