<svg width="24" height="24" viewBox="0 0 24 24" fill="none" xmlns="http://www.w3.org/2000/svg">
<g clip-path="url(#clip0)">
<path d="M12.429 23.9858C14.2643 23.725 15.8732 21.8095 16.8856 18.9807C15.4221 18.6529 13.9286 18.477 12.429 18.4561V23.9858Z" fill="#666665"/>
<path d="M15.361 23.5358C15.4695 23.5044 15.5776 23.4728 15.6848 23.438C15.7753 23.4089 15.8645 23.3775 15.9537 23.3463C16.0593 23.3098 16.1644 23.2723 16.2691 23.2325C16.3583 23.1986 16.4467 23.1626 16.5353 23.1266C16.6375 23.0836 16.7395 23.0409 16.8405 22.998C16.9286 22.9592 17.0162 22.9186 17.1037 22.8778C17.2028 22.831 17.3014 22.7835 17.3992 22.7341C17.4851 22.6903 17.5708 22.6457 17.6566 22.5998C17.7528 22.5483 17.8483 22.4957 17.9431 22.4417C18.029 22.3931 18.1117 22.3443 18.1953 22.2941C18.2883 22.2369 18.3809 22.1797 18.4728 22.1225C18.5551 22.0702 18.6372 22.017 18.7183 21.9621C18.8087 21.9012 18.898 21.8377 18.9868 21.7742C19.0666 21.7171 19.1459 21.6601 19.2238 21.6027C19.3097 21.5365 19.3977 21.468 19.4837 21.3993C19.5602 21.3384 19.6364 21.2779 19.7116 21.2153C19.7973 21.144 19.8794 21.0703 19.9625 20.9966C20.0354 20.9319 20.1087 20.8678 20.1799 20.8014C20.2618 20.725 20.3416 20.6458 20.4214 20.5673C20.4905 20.499 20.5605 20.4318 20.6281 20.3618C20.6407 20.3488 20.6526 20.3348 20.6656 20.3214C19.73 19.8382 18.7446 19.4589 17.7266 19.1904C17.1971 20.8789 16.2549 22.409 14.9853 23.6418C15.0201 23.6328 15.0548 23.6254 15.0896 23.6164C15.1813 23.5907 15.2714 23.5624 15.361 23.5358Z" fill="#666665"/>
<path d="M24 12.4388H18.8571C18.8376 14.4469 18.5463 16.443 17.9911 18.373C19.1233 18.6754 20.2159 19.1102 21.2463 19.6683C22.9382 17.6293 23.9066 15.0869 24 12.4388Z" fill="#666665"/>
<path d="M12.429 11.5809H17.9994C17.9776 9.64387 17.6934 7.71874 17.1549 5.85791C15.6038 6.21165 14.0197 6.40056 12.429 6.4215V11.5809Z" fill="#666665"/>
<path d="M12.429 0.0339355V5.56366C13.9286 5.54251 15.4221 5.36679 16.8856 5.03902C15.8732 2.21018 14.2643 0.294683 12.429 0.0339355Z" fill="#666665"/>
<path d="M12.429 17.5983C14.0197 17.6194 15.6038 17.8084 17.1549 18.1621C17.6934 16.3013 17.9776 14.3759 17.9994 12.4388H12.429V17.5983Z" fill="#666665"/>
<path d="M21.2463 4.35144C20.2159 4.90959 19.1233 5.34437 17.9911 5.6468C18.5463 7.57675 18.8376 9.57287 18.8571 11.5809H24C23.9064 8.93305 22.938 6.39071 21.2463 4.35144Z" fill="#666665"/>
<path d="M20.6669 3.70081C20.6543 3.68804 20.6424 3.67421 20.63 3.66102C20.5622 3.59107 20.4918 3.52363 20.4227 3.45556C20.3431 3.37702 20.2637 3.29765 20.1816 3.22141C20.1106 3.15523 20.0371 3.09261 19.9642 3.02664C19.8811 2.95292 19.7979 2.87857 19.7125 2.80736C19.6383 2.74474 19.5623 2.68484 19.4869 2.62473C19.4011 2.5552 19.3131 2.48609 19.2247 2.4197C19.1472 2.36126 19.0687 2.30472 18.9897 2.24817C18.9001 2.18366 18.81 2.11936 18.7187 2.058C18.6385 2.00397 18.557 1.95119 18.4756 1.89946C18.3828 1.83977 18.2902 1.78134 18.1958 1.72479C18.113 1.67515 18.0295 1.62614 17.9457 1.5786C17.8498 1.52373 17.7536 1.47053 17.6567 1.41859C17.5708 1.37566 17.4851 1.32896 17.3993 1.28602C17.3006 1.23618 17.2011 1.18821 17.0991 1.14109C17.0133 1.10025 16.9262 1.06046 16.8378 1.02171C16.7362 0.976685 16.6336 0.936055 16.5312 0.89312C16.4428 0.857098 16.3548 0.821494 16.2656 0.787565C16.1615 0.747772 16.0559 0.710493 15.9504 0.674051C15.8612 0.642636 15.772 0.61143 15.6815 0.582109C15.5742 0.547343 15.467 0.515718 15.3568 0.483884C15.2676 0.457704 15.178 0.431106 15.0877 0.40723C15.0532 0.397806 15.018 0.390475 14.9832 0.38147C16.2528 1.61421 17.1949 3.14413 17.7245 4.83281C18.7436 4.56431 19.7305 4.18482 20.6669 3.70081Z" fill="#666665"/>
<path d="M0 11.5809H5.1429C5.16237 9.57287 5.4537 7.57675 6.0087 5.6468C4.8767 5.34458 3.78408 4.9098 2.75366 4.35144C1.06184 6.3905 0.0934082 8.93305 0 11.5809Z" fill="#666665"/>
<path d="M11.5711 23.9858V18.4561C10.0715 18.4772 8.57804 18.6529 7.1145 18.9807C8.1267 21.8095 9.7358 23.725 11.5711 23.9858Z" fill="#666665"/>
<path d="M11.5711 12.4388H6.00073C6.02251 14.3759 6.30651 16.3013 6.84518 18.1621C8.39626 17.8081 9.98022 17.6192 11.5711 17.5983V12.4388Z" fill="#666665"/>
<path d="M11.5711 0.0339355C9.7358 0.294683 8.1267 2.21018 7.1145 5.03902C8.57804 5.367 10.0715 5.54272 11.5711 5.56366V0.0339355Z" fill="#666665"/>
<path d="M11.5711 6.4215C9.98043 6.40056 8.39626 6.21165 6.84518 5.85791C6.30651 7.71874 6.02251 9.64387 6.00073 11.5809H11.5711V6.4215Z" fill="#666665"/>
<path d="M9.01353 0.380859C8.97876 0.389865 8.944 0.397195 8.90923 0.406201C8.81833 0.430496 8.7287 0.457513 8.63822 0.483692C8.53057 0.515108 8.42376 0.546732 8.31569 0.58108C8.22458 0.61061 8.13495 0.642025 8.04531 0.673231C7.94038 0.710301 7.83524 0.747162 7.73136 0.786536C7.64173 0.820883 7.55334 0.856487 7.46454 0.892929C7.36255 0.935863 7.26034 0.978797 7.1596 1.02152C7.07122 1.06027 6.98389 1.1009 6.89634 1.14174C6.79728 1.18844 6.69864 1.23598 6.60083 1.28541C6.51496 1.32918 6.42909 1.374 6.34343 1.41966C6.2473 1.47118 6.15201 1.52396 6.05734 1.57799C5.97148 1.62595 5.88707 1.67517 5.80435 1.72543C5.71115 1.78156 5.619 1.83958 5.52726 1.89696C5.44475 1.94974 5.36286 2.00294 5.2818 2.05781C5.19133 2.11875 5.10211 2.18221 5.01331 2.24567C4.93351 2.30285 4.85414 2.35981 4.77602 2.41741C4.68826 2.48338 4.60449 2.55208 4.51611 2.62056C4.43987 2.68151 4.36301 2.74203 4.28845 2.80507C4.20258 2.87586 4.12111 2.94917 4.03839 3.02247C3.96508 3.08781 3.89115 3.15127 3.81953 3.21892C3.73806 3.29494 3.65868 3.3739 3.57909 3.45223C3.50998 3.52051 3.43961 3.58794 3.37175 3.6581C3.3594 3.67109 3.34746 3.68533 3.33447 3.69853C4.26981 4.1819 5.25542 4.56119 6.27348 4.82969C6.80294 3.14206 7.74456 1.61297 9.01353 0.380859Z" fill="#666665"/>
<path d="M3.57719 20.5642C3.65698 20.6427 3.73636 20.7221 3.81825 20.7985C3.88946 20.8645 3.96276 20.9271 4.03585 20.9931C4.119 21.067 4.20214 21.1411 4.28759 21.2124C4.36173 21.2746 4.43734 21.3347 4.51316 21.395C4.59902 21.4645 4.68468 21.5336 4.77558 21.6004C4.85286 21.6585 4.9314 21.7146 5.00994 21.7722C5.09958 21.8365 5.19005 21.9008 5.28137 21.9626C5.36158 22.0166 5.44305 22.0694 5.52452 22.1213C5.6173 22.1808 5.70987 22.2392 5.80433 22.2958C5.88705 22.3456 5.97062 22.3944 6.05439 22.4422C6.15031 22.497 6.24644 22.5502 6.34341 22.602C6.42907 22.6449 6.51494 22.6916 6.60081 22.7345C6.69945 22.7844 6.79893 22.8323 6.90093 22.8797C6.9868 22.9201 7.07392 22.9599 7.1623 22.9988C7.26388 23.0439 7.36629 23.0845 7.46892 23.1274C7.5573 23.1635 7.64526 23.1991 7.73448 23.233C7.83857 23.273 7.94413 23.3103 8.04968 23.3467C8.1389 23.3779 8.22812 23.4093 8.3186 23.4384C8.42583 23.4732 8.53306 23.505 8.64322 23.5367C8.73244 23.5628 8.82208 23.5894 8.91214 23.6135C8.9469 23.623 8.98209 23.6303 9.01686 23.6393C7.74726 22.4063 6.80522 20.8764 6.27555 19.1877C5.25749 19.4564 4.27189 19.8357 3.33655 20.3193C3.34911 20.3321 3.36105 20.3459 3.37362 20.3591C3.43791 20.4286 3.50724 20.4961 3.57719 20.5642Z" fill="#666665"/>
<path d="M2.75366 19.6683C3.78408 19.1102 4.8767 18.6754 6.0087 18.373C5.4537 16.443 5.16237 14.4469 5.1429 12.4388H0C0.0936176 15.0867 1.06184 17.6291 2.75366 19.6683Z" fill="#666665"/>
</g>
<defs>
<clipPath id="clip0">
<rect width="24" height="24" fill="white"/>
</clipPath>
</defs>
</svg>
